<svg id="Capa_1" data-name="Capa 1" xmlns="http://www.w3.org/2000/svg" xmlns:xlink="http://www.w3.org/1999/xlink" viewBox="0 0 737 212.53"><defs><style>.cls-1{fill:#1f2aa5;}.cls-2{fill:#ff6700;}.cls-3{fill:url(#Nueva_muestra_de_degradado_1);}.cls-4{fill:url(#Nueva_muestra_de_degradado_4);}.cls-5{fill:url(#Nueva_muestra_de_degradado_1-2);}.cls-6{fill:url(#Nueva_muestra_de_degradado_4-2);}.cls-7{fill:url(#Nueva_muestra_de_degradado_2);}.cls-8{fill:url(#Degradado_sin_nombre_7);}.cls-9{fill:url(#Nueva_muestra_de_degradado_1-3);}.cls-10{fill:url(#Nueva_muestra_de_degradado_4-3);}</style><linearGradient id="Nueva_muestra_de_degradado_1" x1="202.07" y1="-2204.06" x2="207.34" y2="-2212.38" gradientTransform="translate(1390.35 -1565.9) rotate(-147.3)" gradientUnits="userSpaceOnUse"><stop offset="0" stop-color="#ff6700"/><stop offset="1" stop-color="#ff9a00"/></linearGradient><linearGradient id="Nueva_muestra_de_degradado_4" x1="1617.05" y1="268.71" x2="1618.67" y2="264.04" gradientTransform="matrix(0.96, 0.72, -0.65, 0.88, -1357.6, -1218.13)" gradientUnits="userSpaceOnUse"><stop offset="0" stop-color="#ff6700" stop-opacity="0"/><stop offset="0.93" stop-color="#fff"/></linearGradient><linearGradient id="Nueva_muestra_de_degradado_1-2" x1="135.46" y1="-2073.17" x2="140.73" y2="-2081.49" xlink:href="#Nueva_muestra_de_degradado_1"/><linearGradient id="Nueva_muestra_de_degradado_4-2" x1="1664.69" y1="145.23" x2="1666.31" y2="140.56" xlink:href="#Nueva_muestra_de_degradado_4"/><linearGradient id="Nueva_muestra_de_degradado_2" x1="194.23" y1="-2129.72" x2="208.46" y2="-2152.19" gradientTransform="translate(1785.69 -1162.14) rotate(-132.19)" gradientUnits="userSpaceOnUse"><stop offset="0" stop-color="#002d91"/><stop offset="1" stop-color="#2a93ff"/></linearGradient><linearGradient id="Degradado_sin_nombre_7" x1="457.02" y1="192.46" x2="460.52" y2="173.46" gradientTransform="matrix(0, 0.83, -0.88, 0, 230.09, -262.13)" gradientUnits="userSpaceOnUse"><stop offset="0" stop-color="#002d91" stop-opacity="0"/><stop offset="0.62" stop-color="#a7b7d9" stop-opacity="0.66"/><stop offset="0.94" stop-color="#fff"/></linearGradient><linearGradient id="Nueva_muestra_de_degradado_1-3" x1="255.97" y1="-2099.34" x2="261.24" y2="-2107.66" gradientTransform="translate(2128.21 404.34) rotate(-87.76)" xlink:href="#Nueva_muestra_de_degradado_1"/><linearGradient id="Nueva_muestra_de_degradado_4-3" x1="1566.25" y1="176.77" x2="1567.87" y2="172.1" xlink:href="#Nueva_muestra_de_degradado_4"/></defs><title>Mesa de trabajo 1 copia 3</title><path class="cls-1" d="M216.83,150.19a17.5,17.5,0,0,1-.12,2.25,5.68,5.68,0,0,1-.35,1.46,1.77,1.77,0,0,1-.58.81,1.24,1.24,0,0,1-.76.25H184.9a3.83,3.83,0,0,1-2.58-.9,3.71,3.71,0,0,1-1-2.94V98.84a3.71,3.71,0,0,1,1-2.94A3.79,3.79,0,0,1,184.9,95h29.93a1.3,1.3,0,0,1,.75.23,1.83,1.83,0,0,1,.55.82,6,6,0,0,1,.35,1.48,18,18,0,0,1,.12,2.29,17,17,0,0,1-.12,2.2,5.58,5.58,0,0,1-.35,1.46,2,2,0,0,1-.55.82,1.19,1.19,0,0,1-.75.25H193.42v14.65h18.12a1.27,1.27,0,0,1,.77.25,1.91,1.91,0,0,1,.58.79,5.6,5.6,0,0,1,.35,1.44,22.26,22.26,0,0,1,0,4.42,5.55,5.55,0,0,1-.35,1.41,1.78,1.78,0,0,1-.58.77,1.39,1.39,0,0,1-.77.23H193.42v16.92H215a1.24,1.24,0,0,1,.76.25,1.77,1.77,0,0,1,.58.81,5.68,5.68,0,0,1,.35,1.46A17.72,17.72,0,0,1,216.83,150.19Z"/><path class="cls-1" d="M256,141.71a13.91,13.91,0,0,1-1.32,6.21,12.49,12.49,0,0,1-3.73,4.5,17.11,17.11,0,0,1-5.7,2.71,27.06,27.06,0,0,1-7.14.9,27.52,27.52,0,0,1-4.43-.35,25.92,25.92,0,0,1-3.77-.88,18.78,18.78,0,0,1-2.78-1.09,6.88,6.88,0,0,1-1.63-1,3.14,3.14,0,0,1-.78-1.53,12.49,12.49,0,0,1-.28-3.08,20.62,20.62,0,0,1,.09-2.16,5.46,5.46,0,0,1,.28-1.29,1.21,1.21,0,0,1,.46-.65,1.37,1.37,0,0,1,.7-.16,3.46,3.46,0,0,1,1.5.57c.67.39,1.49.82,2.48,1.28a26.38,26.38,0,0,0,3.46,1.3,15.3,15.3,0,0,0,4.47.6,10.81,10.81,0,0,0,2.8-.33,6.9,6.9,0,0,0,2.13-.92,3.87,3.87,0,0,0,1.37-1.53,4.7,4.7,0,0,0,.47-2.13,3.54,3.54,0,0,0-.86-2.39,7.79,7.79,0,0,0-2.27-1.74,26.91,26.91,0,0,0-3.2-1.39q-1.78-.65-3.66-1.44a32.64,32.64,0,0,1-3.66-1.8,13.92,13.92,0,0,1-3.2-2.51,11.25,11.25,0,0,1-2.27-3.56,13.18,13.18,0,0,1-.86-5,12.77,12.77,0,0,1,1.16-5.45,11.82,11.82,0,0,1,3.34-4.24,15.9,15.9,0,0,1,5.3-2.73,23.59,23.59,0,0,1,7-1,25.87,25.87,0,0,1,3.78.27,27.67,27.67,0,0,1,3.31.7,16.58,16.58,0,0,1,2.51.9,9,9,0,0,1,1.46.84,2.27,2.27,0,0,1,.62.69,2.67,2.67,0,0,1,.28.84,11.82,11.82,0,0,1,.16,1.2c.05.48.07,1.08.07,1.79s0,1.51-.07,2a5,5,0,0,1-.23,1.25,1.09,1.09,0,0,1-.44.62,1.23,1.23,0,0,1-.65.17,3.26,3.26,0,0,1-1.3-.49,21.29,21.29,0,0,0-2.2-1,25.19,25.19,0,0,0-3.06-1,14.86,14.86,0,0,0-4-.48A10,10,0,0,0,239,118a5.19,5.19,0,0,0-1.9.93,3.87,3.87,0,0,0-1.12,1.41,4.24,4.24,0,0,0-.37,1.74,3.49,3.49,0,0,0,.88,2.41,8,8,0,0,0,2.32,1.71,25.31,25.31,0,0,0,3.27,1.39c1.22.44,2.46.91,3.71,1.42a33.84,33.84,0,0,1,3.7,1.78,14.33,14.33,0,0,1,3.27,2.5,11.67,11.67,0,0,1,2.32,3.55A12.38,12.38,0,0,1,256,141.71Z"/><path class="cls-1" d="M306.37,132.12a38.94,38.94,0,0,1-1.18,9.94,22.36,22.36,0,0,1-3.46,7.53,15.28,15.28,0,0,1-5.65,4.77,17.34,17.34,0,0,1-7.74,1.67,14.75,14.75,0,0,1-3.31-.35,12.47,12.47,0,0,1-2.92-1.06,18.1,18.1,0,0,1-2.81-1.79,32.36,32.36,0,0,1-2.87-2.5V169.8a1.34,1.34,0,0,1-.28.83,2.06,2.06,0,0,1-.95.62,7.77,7.77,0,0,1-1.78.4,28.67,28.67,0,0,1-5.66,0,7.64,7.64,0,0,1-1.78-.4,2,2,0,0,1-1-.62,1.34,1.34,0,0,1-.28-.83V112.05a1.45,1.45,0,0,1,.23-.81,1.73,1.73,0,0,1,.81-.58,6.2,6.2,0,0,1,1.53-.35,19.6,19.6,0,0,1,2.39-.12,19.29,19.29,0,0,1,2.34.12,6.2,6.2,0,0,1,1.53.35,1.73,1.73,0,0,1,.81.58,1.45,1.45,0,0,1,.23.81v4.86a43,43,0,0,1,3.55-3.26,21.24,21.24,0,0,1,3.54-2.37,16.41,16.41,0,0,1,3.73-1.41,17.4,17.4,0,0,1,4.1-.46,15.65,15.65,0,0,1,7.74,1.78,14.65,14.65,0,0,1,5.22,4.89,22.14,22.14,0,0,1,2.94,7.23A40,40,0,0,1,306.37,132.12Zm-12.15.83a32,32,0,0,0-.39-5.07,15,15,0,0,0-1.34-4.34,8.18,8.18,0,0,0-2.51-3,6.34,6.34,0,0,0-3.87-1.14,7.86,7.86,0,0,0-2.29.35,9,9,0,0,0-2.32,1.13,17,17,0,0,0-2.43,2,30.27,30.27,0,0,0-2.64,3.11v13.62a27.55,27.55,0,0,0,4.68,4.8,7.54,7.54,0,0,0,4.63,1.69,6.34,6.34,0,0,0,3.87-1.16,8.89,8.89,0,0,0,2.62-3,15.52,15.52,0,0,0,1.51-4.24A23.73,23.73,0,0,0,294.22,133Z"/><path class="cls-1" d="M353.87,131.51a4.54,4.54,0,0,1-.95,3.16,3.42,3.42,0,0,1-2.62,1H325.14a17.45,17.45,0,0,0,.62,4.8,9,9,0,0,0,2,3.66,8.64,8.64,0,0,0,3.52,2.3,15.21,15.21,0,0,0,5.17.78,28.49,28.49,0,0,0,5.37-.44,33.88,33.88,0,0,0,4-1c1.13-.35,2.06-.68,2.8-1a5.36,5.36,0,0,1,1.81-.44,1.37,1.37,0,0,1,.7.16,1.21,1.21,0,0,1,.46.58,4.08,4.08,0,0,1,.26,1.18c0,.51.07,1.15.07,1.92s0,1.26-.05,1.74a11.13,11.13,0,0,1-.14,1.23,3,3,0,0,1-.28.86,3.21,3.21,0,0,1-.48.67,5.65,5.65,0,0,1-1.65.88,27.11,27.11,0,0,1-3.43,1.09q-2.08.53-4.77.93a40.18,40.18,0,0,1-5.75.39,30.28,30.28,0,0,1-9.66-1.39,17.13,17.13,0,0,1-6.93-4.22,17.43,17.43,0,0,1-4.15-7.13,33.64,33.64,0,0,1-1.37-10.11,32,32,0,0,1,1.44-9.94,21,21,0,0,1,4.17-7.51,17.94,17.94,0,0,1,6.65-4.7,22.89,22.89,0,0,1,8.83-1.62,23.15,23.15,0,0,1,8.88,1.53,16,16,0,0,1,6,4.24,16.92,16.92,0,0,1,3.48,6.42,28,28,0,0,1,1.11,8.06Zm-11.31-3.33q.15-4.92-2-7.72t-6.51-2.8a8.42,8.42,0,0,0-3.87.83,7.9,7.9,0,0,0-2.73,2.25,10.17,10.17,0,0,0-1.67,3.34,16.28,16.28,0,0,0-.67,4.1Z"/><path class="cls-1" d="M394.75,146.81c0,.8,0,1.47-.07,2a11.62,11.62,0,0,1-.19,1.37,4.24,4.24,0,0,1-.27.9,3.38,3.38,0,0,1-.72.89,10.72,10.72,0,0,1-1.9,1.29,18.89,18.89,0,0,1-3.06,1.37,24.45,24.45,0,0,1-3.73,1,24.43,24.43,0,0,1-12.61-1.11,16,16,0,0,1-6.19-4.38,19.38,19.38,0,0,1-3.77-7.07,37,37,0,0,1,.28-20.27,20.33,20.33,0,0,1,4.33-7.49,17.38,17.38,0,0,1,6.58-4.4,23.33,23.33,0,0,1,8.34-1.44,20,20,0,0,1,3.64.33,20.64,20.64,0,0,1,3.34.88,18.42,18.42,0,0,1,2.78,1.25,8.37,8.37,0,0,1,1.74,1.2,5.33,5.33,0,0,1,.71.86,2.9,2.9,0,0,1,.33.91,10.06,10.06,0,0,1,.18,1.36c.05.54.07,1.2.07,2a10.74,10.74,0,0,1-.46,3.78c-.31.73-.71,1.09-1.21,1.09a2.85,2.85,0,0,1-1.66-.65c-.59-.43-1.29-.91-2.09-1.44a15.66,15.66,0,0,0-2.87-1.43,10.87,10.87,0,0,0-4-.65,7.91,7.91,0,0,0-6.95,3.5q-2.41,3.5-2.41,10.26a25.86,25.86,0,0,0,.6,5.89,12.41,12.41,0,0,0,1.79,4.26,7.38,7.38,0,0,0,3,2.57,9.35,9.35,0,0,0,4.15.86,10.81,10.81,0,0,0,4.15-.72,16.5,16.5,0,0,0,3-1.6c.87-.58,1.59-1.12,2.18-1.59a2.58,2.58,0,0,1,1.49-.72,1,1,0,0,1,.69.23,1.6,1.6,0,0,1,.44.86,11.19,11.19,0,0,1,.26,1.59C394.72,145,394.75,145.79,394.75,146.81Z"/><path class="cls-1" d="M415.74,98.05q0,3.53-1.43,4.87T409,104.26q-3.94,0-5.31-1.3t-1.37-4.68q0-3.51,1.42-4.89T409.07,92c2.59,0,4.36.44,5.28,1.32S415.74,95.8,415.74,98.05Zm-.88,55.34a1.23,1.23,0,0,1-.28.81,2,2,0,0,1-.95.58,8.57,8.57,0,0,1-1.78.35c-.74.07-1.68.11-2.83.11s-2.08,0-2.82-.11a8.69,8.69,0,0,1-1.79-.35,2,2,0,0,1-1-.58,1.28,1.28,0,0,1-.28-.81V112.14a1.28,1.28,0,0,1,.28-.81,2.22,2.22,0,0,1,1-.6,8.3,8.3,0,0,1,1.79-.4,28.57,28.57,0,0,1,5.65,0,8.19,8.19,0,0,1,1.78.4,2.16,2.16,0,0,1,.95.6,1.23,1.23,0,0,1,.28.81Z"/><path class="cls-1" d="M461.72,153.53a1.24,1.24,0,0,1-.47,1,3.26,3.26,0,0,1-1.46.53,19.49,19.49,0,0,1-2.94.16,19.79,19.79,0,0,1-3-.16,2.68,2.68,0,0,1-1.35-.53,1.35,1.35,0,0,1-.39-1v-3.29a18.84,18.84,0,0,1-5.82,4.26A16.91,16.91,0,0,1,439,156a20.33,20.33,0,0,1-6.05-.86,13.5,13.5,0,0,1-4.77-2.55,11.3,11.3,0,0,1-3.13-4.19,14.32,14.32,0,0,1-1.11-5.84,13.26,13.26,0,0,1,1.41-6.28,11.46,11.46,0,0,1,4.22-4.4,20.82,20.82,0,0,1,7-2.57,49.52,49.52,0,0,1,9.69-.84h4V126a13.33,13.33,0,0,0-.39-3.41,5.8,5.8,0,0,0-1.3-2.43,5.37,5.37,0,0,0-2.41-1.44,12.87,12.87,0,0,0-3.73-.46,18.92,18.92,0,0,0-5.22.65,30,30,0,0,0-4.05,1.43q-1.77.8-2.94,1.44a4.35,4.35,0,0,1-1.93.65,1.4,1.4,0,0,1-.9-.32,2.45,2.45,0,0,1-.65-.93,6.32,6.32,0,0,1-.39-1.48,11.76,11.76,0,0,1-.14-2,8.55,8.55,0,0,1,.23-2.27,3.48,3.48,0,0,1,.88-1.51,8.57,8.57,0,0,1,2.27-1.48,27.58,27.58,0,0,1,3.8-1.51,35.23,35.23,0,0,1,4.75-1.13,30.77,30.77,0,0,1,5.31-.44,31.49,31.49,0,0,1,8.32,1,13.87,13.87,0,0,1,5.67,2.92,11.27,11.27,0,0,1,3.25,5.07,23.72,23.72,0,0,1,1,7.37Zm-11.45-17.71h-4.45a23.79,23.79,0,0,0-4.82.42,9.33,9.33,0,0,0-3.24,1.25,5.09,5.09,0,0,0-1.83,2,6,6,0,0,0-.58,2.71A5.2,5.2,0,0,0,437,146.3a6.58,6.58,0,0,0,4.57,1.48,8.62,8.62,0,0,0,4.52-1.25,18.61,18.61,0,0,0,4.19-3.66Z"/><path class="cls-1" d="M485,153.39a1.23,1.23,0,0,1-.28.81,2,2,0,0,1-.95.58,8.71,8.71,0,0,1-1.78.35c-.74.07-1.69.11-2.83.11s-2.09,0-2.83-.11a8.71,8.71,0,0,1-1.78-.35,2,2,0,0,1-.95-.58,1.23,1.23,0,0,1-.28-.81V92.44a1.34,1.34,0,0,1,.28-.83,2,2,0,0,1,.95-.63,7.83,7.83,0,0,1,1.78-.39,28.67,28.67,0,0,1,5.66,0,7.83,7.83,0,0,1,1.78.39,2,2,0,0,1,.95.63,1.34,1.34,0,0,1,.28.83Z"/><path class="cls-1" d="M509.22,98.05q0,3.53-1.43,4.87t-5.33,1.34q-3.94,0-5.31-1.3t-1.37-4.68q0-3.51,1.42-4.89T502.55,92q3.88,0,5.28,1.32T509.22,98.05Zm-.88,55.34a1.23,1.23,0,0,1-.28.81,2,2,0,0,1-.95.58,8.71,8.71,0,0,1-1.78.35c-.74.07-1.69.11-2.83.11s-2.08,0-2.83-.11a8.71,8.71,0,0,1-1.78-.35,2,2,0,0,1-.95-.58,1.28,1.28,0,0,1-.28-.81V112.14a1.28,1.28,0,0,1,.28-.81,2.22,2.22,0,0,1,.95-.6,8.34,8.34,0,0,1,1.78-.4,28.67,28.67,0,0,1,5.66,0,8.34,8.34,0,0,1,1.78.4,2.16,2.16,0,0,1,.95.6,1.23,1.23,0,0,1,.28.81Z"/><path class="cls-1" d="M548.89,150.19a15,15,0,0,1-.14,2.29,6,6,0,0,1-.37,1.51,1.47,1.47,0,0,1-.6.77,1.76,1.76,0,0,1-.83.2h-27a2.32,2.32,0,0,1-1.93-.83,4.45,4.45,0,0,1-.67-2.73v-2.14c0-.55,0-1,.07-1.5a6.27,6.27,0,0,1,.28-1.3,7.35,7.35,0,0,1,.56-1.27,12.56,12.56,0,0,1,.9-1.44l15.48-23.92H520q-.87,0-1.41-1.11a8.72,8.72,0,0,1-.53-3.57,19.76,19.76,0,0,1,.11-2.24,5.6,5.6,0,0,1,.35-1.44,1.73,1.73,0,0,1,.6-.77,1.67,1.67,0,0,1,.88-.23h25.26a4,4,0,0,1,1.11.14,1.5,1.5,0,0,1,.77.51,2.68,2.68,0,0,1,.46,1,6.65,6.65,0,0,1,.17,1.62V116a13.29,13.29,0,0,1-.1,1.65,8.52,8.52,0,0,1-.28,1.37,6.39,6.39,0,0,1-.53,1.29c-.23.44-.5.9-.81,1.39L530.63,145.6H547a1.67,1.67,0,0,1,.79.19,1.47,1.47,0,0,1,.62.69,4.82,4.82,0,0,1,.39,1.42A14.49,14.49,0,0,1,548.89,150.19Z"/><path class="cls-1" d="M591.72,153.53a1.24,1.24,0,0,1-.47,1,3.26,3.26,0,0,1-1.46.53,19.49,19.49,0,0,1-2.94.16,19.79,19.79,0,0,1-3-.16,2.68,2.68,0,0,1-1.35-.53,1.35,1.35,0,0,1-.39-1v-3.29a18.84,18.84,0,0,1-5.82,4.26A16.91,16.91,0,0,1,569,156a20.33,20.33,0,0,1-6-.86,13.5,13.5,0,0,1-4.77-2.55,11.3,11.3,0,0,1-3.13-4.19,14.32,14.32,0,0,1-1.11-5.84,13.26,13.26,0,0,1,1.41-6.28,11.46,11.46,0,0,1,4.22-4.4,20.82,20.82,0,0,1,7-2.57,49.52,49.52,0,0,1,9.69-.84h4V126a13.33,13.33,0,0,0-.39-3.41,5.8,5.8,0,0,0-1.3-2.43,5.37,5.37,0,0,0-2.41-1.44,12.87,12.87,0,0,0-3.73-.46,18.92,18.92,0,0,0-5.22.65,30,30,0,0,0-4.05,1.43q-1.77.8-2.94,1.44a4.35,4.35,0,0,1-1.93.65,1.4,1.4,0,0,1-.9-.32,2.45,2.45,0,0,1-.65-.93,6.32,6.32,0,0,1-.39-1.48,11.76,11.76,0,0,1-.14-2,8.55,8.55,0,0,1,.23-2.27,3.48,3.48,0,0,1,.88-1.51,8.57,8.57,0,0,1,2.27-1.48,27.58,27.58,0,0,1,3.8-1.51,35.23,35.23,0,0,1,4.75-1.13,30.77,30.77,0,0,1,5.31-.44,31.49,31.49,0,0,1,8.32,1,13.87,13.87,0,0,1,5.67,2.92,11.27,11.27,0,0,1,3.25,5.07,23.72,23.72,0,0,1,1,7.37Zm-11.45-17.71h-4.45a23.79,23.79,0,0,0-4.82.42,9.33,9.33,0,0,0-3.24,1.25,5.09,5.09,0,0,0-1.83,2,6,6,0,0,0-.58,2.71A5.2,5.2,0,0,0,567,146.3a6.58,6.58,0,0,0,4.57,1.48,8.62,8.62,0,0,0,4.52-1.25,18.61,18.61,0,0,0,4.19-3.66Z"/><path class="cls-1" d="M642.56,153.39a1.58,1.58,0,0,1-.23.86,1.79,1.79,0,0,1-.79.58,5.46,5.46,0,0,1-1.51.32q-.94.09-2.34.09c-1,0-1.79,0-2.41-.09a5.64,5.64,0,0,1-1.5-.32,1.92,1.92,0,0,1-.84-.58,1.43,1.43,0,0,1-.25-.86V148.8a26.78,26.78,0,0,1-6.7,5.33,16,16,0,0,1-7.76,1.9,16.18,16.18,0,0,1-8-1.83,15.3,15.3,0,0,1-5.33-4.94,21.5,21.5,0,0,1-3-7.25,40.45,40.45,0,0,1-.92-8.74,38.15,38.15,0,0,1,1.18-9.91,22.52,22.52,0,0,1,3.45-7.51,15.23,15.23,0,0,1,5.66-4.77,17.26,17.26,0,0,1,7.78-1.67,13.89,13.89,0,0,1,6.3,1.41A22,22,0,0,1,631,115V92.58a1.43,1.43,0,0,1,.26-.83,1.91,1.91,0,0,1,.92-.63,7.93,7.93,0,0,1,1.79-.39,28.57,28.57,0,0,1,5.65,0,7.38,7.38,0,0,1,1.76.39,2.05,2.05,0,0,1,.93.63,1.32,1.32,0,0,1,.28.83ZM631,125.77a25.93,25.93,0,0,0-4.79-4.82,8,8,0,0,0-4.8-1.67,6.78,6.78,0,0,0-3.92,1.13,8.23,8.23,0,0,0-2.64,3,16.2,16.2,0,0,0-1.48,4.24,23.13,23.13,0,0,0-.49,4.8,29.93,29.93,0,0,0,.42,5,15.63,15.63,0,0,0,1.37,4.38,8.26,8.26,0,0,0,2.52,3.08,6.57,6.57,0,0,0,4,1.16,8,8,0,0,0,2.34-.35,8.94,8.94,0,0,0,2.31-1.13,16.11,16.11,0,0,0,2.44-2.07c.83-.85,1.74-1.89,2.73-3.13Z"/><path class="cls-1" d="M689.51,153.53a1.24,1.24,0,0,1-.47,1,3.26,3.26,0,0,1-1.46.53,19.49,19.49,0,0,1-2.94.16,20,20,0,0,1-3-.16,2.68,2.68,0,0,1-1.34-.53,1.35,1.35,0,0,1-.39-1v-3.29a18.84,18.84,0,0,1-5.82,4.26A16.91,16.91,0,0,1,666.8,156a20.33,20.33,0,0,1-6-.86,13.5,13.5,0,0,1-4.77-2.55,11.3,11.3,0,0,1-3.13-4.19,14.32,14.32,0,0,1-1.12-5.84,13.26,13.26,0,0,1,1.42-6.28,11.46,11.46,0,0,1,4.22-4.4,20.73,20.73,0,0,1,7-2.57,49.52,49.52,0,0,1,9.69-.84h4V126a13.33,13.33,0,0,0-.39-3.41,5.8,5.8,0,0,0-1.3-2.43,5.37,5.37,0,0,0-2.41-1.44,12.87,12.87,0,0,0-3.73-.46,18.92,18.92,0,0,0-5.22.65,30,30,0,0,0-4,1.43c-1.18.53-2.16,1-3,1.44a4.28,4.28,0,0,1-1.92.65,1.4,1.4,0,0,1-.9-.32,2.35,2.35,0,0,1-.65-.93,6.82,6.82,0,0,1-.4-1.48,13,13,0,0,1-.13-2,8.55,8.55,0,0,1,.23-2.27,3.48,3.48,0,0,1,.88-1.51,8.57,8.57,0,0,1,2.27-1.48,27.58,27.58,0,0,1,3.8-1.51,35.23,35.23,0,0,1,4.75-1.13,30.69,30.69,0,0,1,5.31-.44,31.49,31.49,0,0,1,8.32,1,13.87,13.87,0,0,1,5.67,2.92,11.27,11.27,0,0,1,3.25,5.07,23.72,23.72,0,0,1,1,7.37Zm-11.45-17.71h-4.45a23.72,23.72,0,0,0-4.82.42,9.33,9.33,0,0,0-3.24,1.25,5.09,5.09,0,0,0-1.83,2,6,6,0,0,0-.58,2.71,5.2,5.2,0,0,0,1.64,4.08,6.58,6.58,0,0,0,4.57,1.48,8.56,8.56,0,0,0,4.51-1.25,18.42,18.42,0,0,0,4.2-3.66Z"/><path class="cls-1" d="M730.24,141.71a13.91,13.91,0,0,1-1.32,6.21,12.39,12.39,0,0,1-3.73,4.5,16.93,16.93,0,0,1-5.7,2.71,27,27,0,0,1-7.14.9,27.3,27.3,0,0,1-4.42-.35,25.77,25.77,0,0,1-3.78-.88,19.23,19.23,0,0,1-2.78-1.09,7,7,0,0,1-1.62-1,3.23,3.23,0,0,1-.79-1.53,13,13,0,0,1-.28-3.08,17.85,17.85,0,0,1,.1-2.16,5.52,5.52,0,0,1,.27-1.29,1.22,1.22,0,0,1,.47-.65,1.31,1.31,0,0,1,.69-.16,3.53,3.53,0,0,1,1.51.57c.66.39,1.49.82,2.48,1.28a26.76,26.76,0,0,0,3.45,1.3,15.3,15.3,0,0,0,4.47.6,10.89,10.89,0,0,0,2.81-.33,6.9,6.9,0,0,0,2.13-.92,3.94,3.94,0,0,0,1.37-1.53,4.83,4.83,0,0,0,.46-2.13,3.54,3.54,0,0,0-.86-2.39,7.79,7.79,0,0,0-2.27-1.74,26.22,26.22,0,0,0-3.2-1.39q-1.78-.65-3.66-1.44a32.64,32.64,0,0,1-3.66-1.8,13.92,13.92,0,0,1-3.2-2.51,11.25,11.25,0,0,1-2.27-3.56,13.18,13.18,0,0,1-.86-5,12.77,12.77,0,0,1,1.16-5.45,12,12,0,0,1,3.34-4.24,15.85,15.85,0,0,1,5.31-2.73,23.5,23.5,0,0,1,7-1,26,26,0,0,1,3.78.27,28.1,28.1,0,0,1,3.31.7,16.42,16.42,0,0,1,2.5.9,8.53,8.53,0,0,1,1.46.84,2.47,2.47,0,0,1,.63.69,3.31,3.31,0,0,1,.28.84c.06.32.11.72.16,1.2s.07,1.08.07,1.79,0,1.51-.07,2a6.11,6.11,0,0,1-.23,1.25,1.13,1.13,0,0,1-.44.62,1.29,1.29,0,0,1-.65.17,3.26,3.26,0,0,1-1.3-.49,22.34,22.34,0,0,0-2.2-1,25.19,25.19,0,0,0-3.06-1,14.92,14.92,0,0,0-4-.48,10.11,10.11,0,0,0-2.74.32,5.36,5.36,0,0,0-1.9.93,4,4,0,0,0-1.11,1.41,4.09,4.09,0,0,0-.37,1.74,3.44,3.44,0,0,0,.88,2.41,8,8,0,0,0,2.32,1.71,24.56,24.56,0,0,0,3.26,1.39c1.22.44,2.46.91,3.71,1.42a34,34,0,0,1,3.71,1.78,14.33,14.33,0,0,1,3.27,2.5,11.65,11.65,0,0,1,2.31,3.55A12.38,12.38,0,0,1,730.24,141.71Z"/><path class="cls-2" d="M207.53,40.25a15.7,15.7,0,0,1-.1,1.85,4.29,4.29,0,0,1-.29,1.2,2.06,2.06,0,0,1-.46.66.92.92,0,0,1-.59.22H190.56V57h14.58a1,1,0,0,1,.59.18,1.59,1.59,0,0,1,.46.62,4.32,4.32,0,0,1,.29,1.18,18.75,18.75,0,0,1,0,3.67,4.77,4.77,0,0,1-.29,1.21,1.71,1.71,0,0,1-.46.68.92.92,0,0,1-.59.2H190.56V82.4a1.12,1.12,0,0,1-.22.7,1.63,1.63,0,0,1-.79.49,7.07,7.07,0,0,1-1.48.32,27.55,27.55,0,0,1-4.69,0,6.65,6.65,0,0,1-1.48-.32,1.79,1.79,0,0,1-.79-.49,1.08,1.08,0,0,1-.24-.7V39.33A2.9,2.9,0,0,1,181.7,37a3,3,0,0,1,2-.72h22.36a.91.91,0,0,1,.59.21,1.69,1.69,0,0,1,.46.66,4.45,4.45,0,0,1,.29,1.23A16.07,16.07,0,0,1,207.53,40.25Z"/><path class="cls-2" d="M240.68,82.66a1,1,0,0,1-.37.8,2.49,2.49,0,0,1-1.15.43,23.46,23.46,0,0,1-4.74,0,2,2,0,0,1-1.06-.43,1,1,0,0,1-.32-.8V80.05a15,15,0,0,1-4.6,3.38,13.4,13.4,0,0,1-5.75,1.21A16.12,16.12,0,0,1,217.9,84a10.72,10.72,0,0,1-3.78-2,8.93,8.93,0,0,1-2.48-3.32,11.28,11.28,0,0,1-.88-4.63,10.39,10.39,0,0,1,1.12-5,9.06,9.06,0,0,1,3.34-3.49,16.56,16.56,0,0,1,5.52-2,39.6,39.6,0,0,1,7.68-.66h3.19v-2a10.33,10.33,0,0,0-.31-2.7,4.49,4.49,0,0,0-1-1.93,4.32,4.32,0,0,0-1.91-1.14,10.33,10.33,0,0,0-3-.36,15.25,15.25,0,0,0-4.13.51,22.55,22.55,0,0,0-3.22,1.14c-.93.41-1.7.79-2.33,1.14a3.41,3.41,0,0,1-1.52.51,1.12,1.12,0,0,1-.72-.26A1.77,1.77,0,0,1,213,57a4.68,4.68,0,0,1-.31-1.18,9.14,9.14,0,0,1-.11-1.54,7.12,7.12,0,0,1,.18-1.8,2.65,2.65,0,0,1,.7-1.19,6.68,6.68,0,0,1,1.8-1.18,22.22,22.22,0,0,1,3-1.19,26.93,26.93,0,0,1,3.76-.9,25.15,25.15,0,0,1,4.2-.35,24.72,24.72,0,0,1,6.59.76,11,11,0,0,1,4.5,2.31,9,9,0,0,1,2.57,4,18.72,18.72,0,0,1,.81,5.84Zm-9.07-14h-3.52a18.92,18.92,0,0,0-3.82.33,7.34,7.34,0,0,0-2.57,1,4.08,4.08,0,0,0-1.45,1.6,4.76,4.76,0,0,0-.46,2.15,4.12,4.12,0,0,0,1.3,3.23,5.24,5.24,0,0,0,3.62,1.17,6.77,6.77,0,0,0,3.58-1,15,15,0,0,0,3.32-2.9Z"/><path class="cls-2" d="M270.93,52.84c0,.88,0,1.61-.07,2.17a6.63,6.63,0,0,1-.22,1.32,1.35,1.35,0,0,1-.38.66,1,1,0,0,1-.61.19,2.14,2.14,0,0,1-.66-.13l-.83-.28a9.73,9.73,0,0,0-1-.27,5,5,0,0,0-1.21-.13,4,4,0,0,0-1.54.31,6.64,6.64,0,0,0-1.6,1,12.06,12.06,0,0,0-1.72,1.76,29.37,29.37,0,0,0-1.93,2.72V82.55a1,1,0,0,1-.22.64,1.66,1.66,0,0,1-.75.46,6.77,6.77,0,0,1-1.42.27c-.59.06-1.33.09-2.24.09s-1.65,0-2.24-.09a6.66,6.66,0,0,1-1.41-.27,1.56,1.56,0,0,1-.75-.46,1,1,0,0,1-.22-.64V49.8a1.18,1.18,0,0,1,.18-.65,1.4,1.4,0,0,1,.66-.46,5.41,5.41,0,0,1,1.23-.27,16.35,16.35,0,0,1,1.89-.09,17.5,17.5,0,0,1,1.95.09,4.48,4.48,0,0,1,1.19.27,1.51,1.51,0,0,1,.61.46,1.18,1.18,0,0,1,.18.65v4.07a27.13,27.13,0,0,1,2.42-3A14.1,14.1,0,0,1,262.38,49a6.75,6.75,0,0,1,2.06-1,7.61,7.61,0,0,1,2.05-.28,11.11,11.11,0,0,1,2.17.24,7.1,7.1,0,0,1,1,.3,2,2,0,0,1,.64.34,1.24,1.24,0,0,1,.29.41,3.23,3.23,0,0,1,.17.6,10.15,10.15,0,0,1,.11,1.16C270.92,51.26,270.93,52,270.93,52.84Z"/><path class="cls-2" d="M328.73,82.55a1,1,0,0,1-.22.64,1.68,1.68,0,0,1-.74.46,6.32,6.32,0,0,1-1.39.27c-.59.06-1.34.09-2.24.09s-1.69,0-2.28-.09a6.53,6.53,0,0,1-1.41-.27,1.52,1.52,0,0,1-.74-.46,1.08,1.08,0,0,1-.2-.64V63.12a13.39,13.39,0,0,0-.31-3,7.13,7.13,0,0,0-1-2.33,4.36,4.36,0,0,0-1.61-1.5,4.75,4.75,0,0,0-2.33-.54A5.5,5.5,0,0,0,311,57a22.54,22.54,0,0,0-3.68,3.74V82.55a1,1,0,0,1-.22.64,1.56,1.56,0,0,1-.75.46,6.53,6.53,0,0,1-1.41.27c-.59.06-1.32.09-2.21.09s-1.65,0-2.24-.09a6.79,6.79,0,0,1-1.41-.27,1.66,1.66,0,0,1-.75-.46,1,1,0,0,1-.22-.64V63.12a14,14,0,0,0-.31-3,7.34,7.34,0,0,0-.94-2.33,4.31,4.31,0,0,0-1.62-1.5,4.75,4.75,0,0,0-2.31-.54A5.56,5.56,0,0,0,289.51,57a21.73,21.73,0,0,0-3.63,3.74V82.55a1,1,0,0,1-.22.64,1.66,1.66,0,0,1-.75.46,6.77,6.77,0,0,1-1.42.27c-.59.06-1.33.09-2.24.09s-1.65,0-2.24-.09a6.53,6.53,0,0,1-1.41-.27,1.56,1.56,0,0,1-.75-.46,1,1,0,0,1-.22-.64V49.8a1.18,1.18,0,0,1,.18-.65,1.4,1.4,0,0,1,.66-.46,5.41,5.41,0,0,1,1.23-.27,16.35,16.35,0,0,1,1.89-.09,17.5,17.5,0,0,1,2,.09,4.48,4.48,0,0,1,1.19.27,1.51,1.51,0,0,1,.61.46,1.18,1.18,0,0,1,.18.65v3.78a21.63,21.63,0,0,1,5.42-4.41,11.57,11.57,0,0,1,5.63-1.47,14.5,14.5,0,0,1,3.64.42,10.68,10.68,0,0,1,2.88,1.22,8.82,8.82,0,0,1,2.18,1.89,11,11,0,0,1,1.55,2.46A26.53,26.53,0,0,1,308.7,51a16.21,16.21,0,0,1,2.79-1.85,12.49,12.49,0,0,1,2.75-1.07,11.57,11.57,0,0,1,2.81-.35,12.5,12.5,0,0,1,5.51,1.1,9.67,9.67,0,0,1,3.61,3,12,12,0,0,1,2,4.42,23.8,23.8,0,0,1,.59,5.36Z"/><path class="cls-2" d="M365.7,82.66a1,1,0,0,1-.37.8,2.49,2.49,0,0,1-1.15.43,23.46,23.46,0,0,1-4.74,0,2.1,2.1,0,0,1-1.07-.43,1.06,1.06,0,0,1-.31-.8V80.05a14.88,14.88,0,0,1-4.61,3.38,13.32,13.32,0,0,1-5.74,1.21,16.12,16.12,0,0,1-4.79-.68,10.72,10.72,0,0,1-3.78-2,8.93,8.93,0,0,1-2.48-3.32,11.28,11.28,0,0,1-.88-4.63,10.39,10.39,0,0,1,1.12-5,9.06,9.06,0,0,1,3.34-3.49,16.56,16.56,0,0,1,5.52-2,39.6,39.6,0,0,1,7.68-.66h3.19v-2a10.33,10.33,0,0,0-.31-2.7,4.49,4.49,0,0,0-1-1.93,4.32,4.32,0,0,0-1.91-1.14,10.33,10.33,0,0,0-2.95-.36,15.25,15.25,0,0,0-4.13.51,22.55,22.55,0,0,0-3.22,1.14c-.93.41-1.7.79-2.33,1.14a3.41,3.41,0,0,1-1.52.51,1.12,1.12,0,0,1-.72-.26A1.77,1.77,0,0,1,338,57a4.68,4.68,0,0,1-.31-1.18,9.08,9.08,0,0,1-.12-1.54,7.06,7.06,0,0,1,.19-1.8,2.65,2.65,0,0,1,.7-1.19,6.68,6.68,0,0,1,1.8-1.18,22.22,22.22,0,0,1,3-1.19,26.93,26.93,0,0,1,3.76-.9,25.15,25.15,0,0,1,4.2-.35,24.72,24.72,0,0,1,6.59.76,11,11,0,0,1,4.5,2.31,9,9,0,0,1,2.57,4,18.72,18.72,0,0,1,.81,5.84Zm-9.07-14h-3.52a18.92,18.92,0,0,0-3.82.33,7.26,7.26,0,0,0-2.57,1,4.08,4.08,0,0,0-1.45,1.6,4.76,4.76,0,0,0-.46,2.15,4.12,4.12,0,0,0,1.3,3.23,5.24,5.24,0,0,0,3.62,1.17,6.77,6.77,0,0,0,3.58-1,15,15,0,0,0,3.32-2.9Z"/><path class="cls-2" d="M398.62,77.33c0,.64,0,1.17-.05,1.6a10.06,10.06,0,0,1-.15,1.08,3.46,3.46,0,0,1-.22.72,2.89,2.89,0,0,1-.57.7,8,8,0,0,1-1.51,1,14.31,14.31,0,0,1-2.42,1.09,19.81,19.81,0,0,1-2.95.77,18.73,18.73,0,0,1-3.29.29,17.92,17.92,0,0,1-6.7-1.17,12.59,12.59,0,0,1-4.9-3.47,15.28,15.28,0,0,1-3-5.6,26,26,0,0,1-1-7.56,26.2,26.2,0,0,1,1.23-8.5,16.16,16.16,0,0,1,3.44-5.93,13.65,13.65,0,0,1,5.21-3.49,18.53,18.53,0,0,1,6.61-1.14,16.15,16.15,0,0,1,2.88.26,17.1,17.1,0,0,1,2.65.69,15.58,15.58,0,0,1,2.2,1,6.82,6.82,0,0,1,1.38,1,3.83,3.83,0,0,1,.56.68,2,2,0,0,1,.26.71,10.68,10.68,0,0,1,.15,1.09q.06.65.06,1.56a8.54,8.54,0,0,1-.37,3c-.25.58-.57.86-1,.86a2.29,2.29,0,0,1-1.32-.51c-.46-.34-1-.72-1.65-1.14a13.44,13.44,0,0,0-2.28-1.14,8.76,8.76,0,0,0-3.16-.51,6.27,6.27,0,0,0-5.5,2.77c-1.28,1.85-1.91,4.56-1.91,8.13a20.33,20.33,0,0,0,.48,4.67,10,10,0,0,0,1.41,3.38,6,6,0,0,0,2.35,2,7.41,7.41,0,0,0,3.29.68,8.55,8.55,0,0,0,3.28-.57,13.9,13.9,0,0,0,2.41-1.26c.68-.47,1.26-.89,1.72-1.27a2.06,2.06,0,0,1,1.18-.57.85.85,0,0,1,.55.18,1.43,1.43,0,0,1,.35.68,9.47,9.47,0,0,1,.2,1.27C398.6,75.86,398.62,76.53,398.62,77.33Z"/><path class="cls-2" d="M414.56,39.33c0,1.86-.38,3.15-1.14,3.86s-2.17,1.06-4.22,1.06-3.49-.34-4.21-1-1.08-1.92-1.08-3.71.37-3.15,1.12-3.87,2.16-1.08,4.24-1.08,3.45.35,4.18,1S414.56,37.54,414.56,39.33Zm-.7,43.84a1,1,0,0,1-.22.64,1.58,1.58,0,0,1-.75.46,6.12,6.12,0,0,1-1.42.28c-.59.06-1.33.09-2.24.09s-1.65,0-2.24-.09a5.91,5.91,0,0,1-1.41-.28,1.49,1.49,0,0,1-.75-.46,1,1,0,0,1-.22-.64V50.49a1,1,0,0,1,.22-.64,1.73,1.73,0,0,1,.75-.48,6.25,6.25,0,0,1,1.41-.31,22.86,22.86,0,0,1,4.48,0,6.48,6.48,0,0,1,1.42.31,1.87,1.87,0,0,1,.75.48,1,1,0,0,1,.22.64Z"/><path class="cls-2" d="M450.6,82.66a1,1,0,0,1-.37.8,2.49,2.49,0,0,1-1.16.43,16.67,16.67,0,0,1-2.33.12,16.94,16.94,0,0,1-2.4-.12,2.1,2.1,0,0,1-1.07-.43,1.06,1.06,0,0,1-.31-.8V80.05a14.88,14.88,0,0,1-4.61,3.38,13.32,13.32,0,0,1-5.74,1.21,16.12,16.12,0,0,1-4.79-.68,10.85,10.85,0,0,1-3.79-2,9,9,0,0,1-2.47-3.32,11.28,11.28,0,0,1-.89-4.63,10.51,10.51,0,0,1,1.12-5,9.09,9.09,0,0,1,3.35-3.49,16.56,16.56,0,0,1,5.52-2,39.53,39.53,0,0,1,7.68-.66h3.19v-2a10.33,10.33,0,0,0-.31-2.7,4.49,4.49,0,0,0-1-1.93,4.38,4.38,0,0,0-1.91-1.14,10.41,10.41,0,0,0-3-.36,15.36,15.36,0,0,0-4.13.51A22.84,22.84,0,0,0,428,56.37c-.93.41-1.71.79-2.33,1.14a3.41,3.41,0,0,1-1.52.51,1.12,1.12,0,0,1-.72-.26,1.77,1.77,0,0,1-.51-.73,5.11,5.11,0,0,1-.32-1.18,10.32,10.32,0,0,1-.11-1.54,6.63,6.63,0,0,1,.19-1.8,2.72,2.72,0,0,1,.69-1.19,7,7,0,0,1,1.8-1.18,22.39,22.39,0,0,1,3-1.19,26.59,26.59,0,0,1,3.76-.9,25.15,25.15,0,0,1,4.2-.35,24.72,24.72,0,0,1,6.59.76,11,11,0,0,1,4.5,2.31,9,9,0,0,1,2.57,4,18.72,18.72,0,0,1,.81,5.84Zm-9.07-14H438a18.88,18.88,0,0,0-3.81.33,7.26,7.26,0,0,0-2.57,1,4.08,4.08,0,0,0-1.45,1.6,4.76,4.76,0,0,0-.46,2.15,4.12,4.12,0,0,0,1.3,3.23,5.22,5.22,0,0,0,3.62,1.17,6.8,6.8,0,0,0,3.58-1,15,15,0,0,0,3.32-2.9Z"/><path class="cls-2" d="M482.87,73.29a11.13,11.13,0,0,1-1,4.92,9.93,9.93,0,0,1-3,3.57,13.23,13.23,0,0,1-4.52,2.14,22.39,22.39,0,0,1-12.15-.25,14.82,14.82,0,0,1-2.2-.87,5.56,5.56,0,0,1-1.29-.82,2.59,2.59,0,0,1-.62-1.21,10,10,0,0,1-.22-2.45,15.47,15.47,0,0,1,.07-1.7,4.34,4.34,0,0,1,.22-1,1,1,0,0,1,.37-.52,1.15,1.15,0,0,1,.55-.12,2.65,2.65,0,0,1,1.19.46c.53.3,1.18.64,2,1a20.44,20.44,0,0,0,2.73,1,12.05,12.05,0,0,0,3.55.48,8.79,8.79,0,0,0,2.22-.26,5.54,5.54,0,0,0,1.69-.73,3.21,3.21,0,0,0,1.08-1.21,3.82,3.82,0,0,0,.37-1.69,2.79,2.79,0,0,0-.68-1.89,6.13,6.13,0,0,0-1.8-1.38,20.85,20.85,0,0,0-2.53-1.1c-.95-.34-1.91-.72-2.91-1.14a27.83,27.83,0,0,1-2.9-1.43,11.3,11.3,0,0,1-2.53-2,9,9,0,0,1-1.8-2.83,10.46,10.46,0,0,1-.68-4A10.1,10.1,0,0,1,459,54a9.35,9.35,0,0,1,2.64-3.36,12.69,12.69,0,0,1,4.21-2.17,18.77,18.77,0,0,1,5.56-.77,20.83,20.83,0,0,1,3,.22,22.81,22.81,0,0,1,2.63.55,12.32,12.32,0,0,1,2,.72,7.33,7.33,0,0,1,1.16.66,1.87,1.87,0,0,1,.49.55,2.33,2.33,0,0,1,.22.66c0,.26.09.58.13,1a13.83,13.83,0,0,1,.06,1.41q0,1-.06,1.62a4.92,4.92,0,0,1-.18,1,.87.87,0,0,1-.35.49,1,1,0,0,1-.51.13,2.51,2.51,0,0,1-1-.38,17.39,17.39,0,0,0-1.75-.83,21.12,21.12,0,0,0-2.42-.83,12,12,0,0,0-3.14-.38,8.25,8.25,0,0,0-2.17.25,4.21,4.21,0,0,0-1.5.74,3,3,0,0,0-.88,1.12,3.23,3.23,0,0,0-.3,1.38,2.78,2.78,0,0,0,.7,1.91A6.5,6.5,0,0,0,469.29,61a20.55,20.55,0,0,0,2.59,1.11c1,.34,1.94.71,2.93,1.12a25.48,25.48,0,0,1,2.94,1.41,11.19,11.19,0,0,1,2.59,2,9.31,9.31,0,0,1,1.84,2.81A9.91,9.91,0,0,1,482.87,73.29Z"/><path class="cls-2" d="M623.32,171.33a.9.9,0,0,0,.53-.17,1.6,1.6,0,0,0,.41-.52,2.8,2.8,0,0,0,.26-.94,9.91,9.91,0,0,0,.08-1.45,10.39,10.39,0,0,0-.08-1.47,3,3,0,0,0-.26-1,1.41,1.41,0,0,0-.41-.52,1,1,0,0,0-.53-.16H603.27a2.94,2.94,0,0,0-1.82.56,2.15,2.15,0,0,0-.74,1.83v33.76a.76.76,0,0,0,.21.54,1.52,1.52,0,0,0,.71.39,6.58,6.58,0,0,0,1.33.25c.56.05,1.26.08,2.09.08s1.56,0,2.11-.08a6.88,6.88,0,0,0,1.33-.25,1.42,1.42,0,0,0,.71-.39.8.8,0,0,0,.2-.54V187.42h13.06a1,1,0,0,0,.53-.16,1.46,1.46,0,0,0,.41-.53,3.48,3.48,0,0,0,.27-.95,11.49,11.49,0,0,0,.08-1.44,11.26,11.26,0,0,0-.08-1.44,3,3,0,0,0-.27-.92,1.21,1.21,0,0,0-.41-.49.94.94,0,0,0-.53-.15H609.4v-10h13.92Z"/><path class="cls-2" d="M655.48,171.07a.9.9,0,0,0,.53-.16,1.21,1.21,0,0,0,.39-.5,3.36,3.36,0,0,0,.25-.91,10.36,10.36,0,0,0,.08-1.36,11,11,0,0,0-.08-1.43,3.67,3.67,0,0,0-.25-.92,1.09,1.09,0,0,0-.39-.5,1,1,0,0,0-.53-.15H634.22a3,3,0,0,0-1.83.56,2.15,2.15,0,0,0-.74,1.83V200a2.12,2.12,0,0,0,.74,1.83,3,3,0,0,0,1.83.56h21.39a.93.93,0,0,0,.54-.16,1.1,1.1,0,0,0,.41-.5,3,3,0,0,0,.25-.91,12.2,12.2,0,0,0,0-2.79,3.12,3.12,0,0,0-.25-.91,1.16,1.16,0,0,0-.41-.5,1,1,0,0,0-.54-.16H640.27V186h12.87a1,1,0,0,0,.54-.15,1,1,0,0,0,.42-.47,2.84,2.84,0,0,0,.24-.88,8.66,8.66,0,0,0,.09-1.38,8.88,8.88,0,0,0-.09-1.37,2.91,2.91,0,0,0-.24-.89,1.2,1.2,0,0,0-.42-.49,1,1,0,0,0-.54-.16H640.27v-9.09Z"/><path class="cls-2" d="M686.65,169.83c0-.5,0-.91,0-1.25a5.12,5.12,0,0,0-.12-.83,2,2,0,0,0-.2-.54,2.18,2.18,0,0,0-.44-.49,5.51,5.51,0,0,0-1.35-.71,16.85,16.85,0,0,0-2.34-.78l-.38-.09c-.77-.18-1.58-.34-2.45-.46a23.72,23.72,0,0,0-3-.2,22.55,22.55,0,0,0-5.54.66,13.74,13.74,0,0,0-4.54,2,10,10,0,0,0-3.07,3.37c-.14.26-.26.54-.38.82a9.87,9.87,0,0,0-.75,3.88,9.21,9.21,0,0,0,.79,4,9.78,9.78,0,0,0,2.06,2.9,13.33,13.33,0,0,0,2.88,2.1,32.51,32.51,0,0,0,3.32,1.57c1.14.46,2.25.89,3.33,1.31a22.87,22.87,0,0,1,2.88,1.32,7.59,7.59,0,0,1,2.05,1.61,3.17,3.17,0,0,1,.79,2.17,4.1,4.1,0,0,1-1.79,3.49,6.77,6.77,0,0,1-2.12.93,11.19,11.19,0,0,1-2.84.33,17.11,17.11,0,0,1-4.22-.47,22.27,22.27,0,0,1-3.15-1.05c-.88-.39-1.59-.74-2.15-1a3,3,0,0,0-1.3-.48,1,1,0,0,0-.58.16,1,1,0,0,0-.4.53,4.14,4.14,0,0,0-.21,1c0,.4-.07.9-.07,1.5a8.12,8.12,0,0,0,.19,2,2,2,0,0,0,.6,1.07,7.59,7.59,0,0,0,1.4.87,16,16,0,0,0,2.42.93,27.3,27.3,0,0,0,3.34.77,25.12,25.12,0,0,0,4.1.31,24,24,0,0,0,6.12-.75,15.48,15.48,0,0,0,5-2.23,11.17,11.17,0,0,0,3.39-3.69,10.37,10.37,0,0,0,1.25-5.16,8.89,8.89,0,0,0-.79-3.89,9.57,9.57,0,0,0-2.08-2.88,12.93,12.93,0,0,0-2.92-2.1,34.06,34.06,0,0,0-3.36-1.57c-1.14-.46-2.26-.9-3.36-1.31a23.4,23.4,0,0,1-3-1.32,7.24,7.24,0,0,1-2.07-1.62,3.21,3.21,0,0,1-.77-2.14,3.71,3.71,0,0,1,.34-1.58,3.25,3.25,0,0,1,1.06-1.28,3.21,3.21,0,0,1,.31-.19,5.39,5.39,0,0,1,1.45-.65,9,9,0,0,1,2.47-.3,13.32,13.32,0,0,1,3.32.39c.67.17,1.27.36,1.84.56l.83.3c.76.32,1.41.61,1.94.88a3,3,0,0,0,1.15.4,1,1,0,0,0,.58-.17,1.17,1.17,0,0,0,.33-.55,4.33,4.33,0,0,0,.15-.86s0-.06,0-.09C686.63,170.86,686.65,170.39,686.65,169.83Z"/><path class="cls-2" d="M716.16,165.69a1.81,1.81,0,0,0-.92-.48l-.36-.07a11.94,11.94,0,0,0-1.44-.13c-.77,0-1.8,0-3.09,0-1.12,0-2,0-2.7,0a8.61,8.61,0,0,0-1.21.13c-.13,0-.28,0-.39.07a1.76,1.76,0,0,0-.84.46,3.31,3.31,0,0,0-.46.8l-1.93,4.86-11.2,28.17a8.23,8.23,0,0,0-.49,1.61,1,1,0,0,0,.23.94,2,2,0,0,0,1.18.42c.57.05,1.36.08,2.37.08s1.71,0,2.29-.05a6.08,6.08,0,0,0,1.35-.22,1.44,1.44,0,0,0,.69-.43,2.29,2.29,0,0,0,.35-.68l2.69-7.28h16l2.87,7.48a1.85,1.85,0,0,0,.32.61,1.47,1.47,0,0,0,.7.36,8,8,0,0,0,1.43.17c.62,0,1.5,0,2.61,0s1.92,0,2.54-.07a2.37,2.37,0,0,0,1.28-.37.93.93,0,0,0,.27-.91,9,9,0,0,0-.5-1.64l-11.26-28.23-1.9-4.78A3,3,0,0,0,716.16,165.69Zm-12,22.39,6-15.83h0l6,15.83Z"/><circle class="cls-3" cx="25.84" cy="181.43" r="6.51"/><path class="cls-4" d="M31.47,181.11c.79-1.06-.07-3-1.93-4.42s-4-1.65-4.8-.59.08,3,1.93,4.43S30.68,182.18,31.47,181.11Z"/><path class="cls-5" d="M147.13,103.76a6.51,6.51,0,1,0,9-2A6.49,6.49,0,0,0,147.13,103.76Z"/><path class="cls-6" d="M158.23,107c.79-1.06-.07-3-1.93-4.42s-4-1.65-4.79-.59.07,3,1.93,4.43S157.44,108,158.23,107Z"/><circle class="cls-7" cx="66.09" cy="126.15" r="17.58" transform="translate(-30.6 21.59) rotate(-15.11)"/><ellipse class="cls-8" cx="70.82" cy="118.36" rx="7.4" ry="11.16" transform="translate(-67.09 120.51) rotate(-60)"/><circle class="cls-9" cx="37.06" cy="64.2" r="6.51" transform="translate(-37.07 63.59) rotate(-59.54)"/><path class="cls-10" d="M42.68,63.88c.79-1.06-.07-3.05-1.93-4.43s-4-1.65-4.79-.59.07,3,1.93,4.43S41.89,64.94,42.68,63.88Z"/><path class="cls-2" d="M125.42,84.68l-6.33-10.26-6.38-10.23-1.59-2.55-.8-1.28-.11-.16-.06-.1a1.76,1.76,0,0,1-.09-.2,1.4,1.4,0,0,1-.1-.46l0-1.51-.08-3q-.14-5-.28-9.93h-.11l-.37-11.8-.41-11.53a2.93,2.93,0,0,1,.52-1.55l.06-.09.11-.13.23-.29.46-.57.92-1.16.93-1.15.51-.65a7.7,7.7,0,0,0,.55-.85,7.09,7.09,0,0,0,.89-3.91,7.67,7.67,0,0,0-.39-2,7.3,7.3,0,0,0-.92-1.75,7,7,0,0,0-1.35-1.42,7.18,7.18,0,0,0-1.67-1,7.06,7.06,0,0,0-1.86-.47,7.63,7.63,0,0,0-1,0l-.75,0L103,4.88q-5.9.29-11.81.62l-.71,0-.71,0Q83.87,5.17,78,4.88l-3-.14-.75,0a7.63,7.63,0,0,0-1,0,6.83,6.83,0,0,0-3.53,1.45,7,7,0,0,0-1.35,1.42,7.3,7.3,0,0,0-.92,1.75,7.67,7.67,0,0,0-.39,2A7.17,7.17,0,0,0,68,15.22a7.7,7.7,0,0,0,.55.85l.52.65L70,17.87,70.93,19l.46.57.24.29.1.13.06.09a2.93,2.93,0,0,1,.52,1.55L71.9,33.19,71.53,45c-.13,3.94-.23,7.87-.34,11.81l-.07,2.95,0,1.48a1.56,1.56,0,0,1-.1.45,1.24,1.24,0,0,1-.1.2.41.41,0,0,1,0,.09l-.11.16-.78,1.26-1.56,2.5-6.26,10L55.91,86c-3.5,5.66-7,11.34-10.43,17l.19.21q3.11,3.42,6.35,6.7c3.76-6.53,7.55-13,11.27-19.6l5.85-10.25,5.8-10.28,1.45-2.57.72-1.28c0-.07.18-.31.27-.48s.18-.38.26-.57a9.83,9.83,0,0,0,.41-1.19,8.59,8.59,0,0,0,.3-2.46l0-1.48-.07-2.95C78.13,52.87,78,48.94,77.9,45l-.37-11.81-.21-5.9-.11-2.95,0-1.48,0-.74,0-.47c0-.18,0-.36-.06-.53a7.61,7.61,0,0,0-1.72-3.84l-.17-.2L75,16.94l-.25-.27-.51-.54-1-1.07-1-1.08-.44-.47a3.26,3.26,0,0,1-.29-.36,3.31,3.31,0,0,1-.57-1.74,3.37,3.37,0,0,1,.45-1.84A4.17,4.17,0,0,1,72,8.78a3.66,3.66,0,0,1,.81-.59,3.49,3.49,0,0,1,1-.34,4.17,4.17,0,0,1,.51-.08l.74,0,3-.14Q83.88,7.31,89.78,7l.71,0,.71,0q5.91.33,11.81.62l2.95.14.74,0a4.67,4.67,0,0,1,.52.08,3.54,3.54,0,0,1,1,.34,3.66,3.66,0,0,1,.81.59,3.8,3.8,0,0,1,.61.79,3.37,3.37,0,0,1,.45,1.84,3.31,3.31,0,0,1-.57,1.74c-.09.13-.18.24-.28.36l-.45.47-1,1.08-1,1.07-.51.54-.25.27-.14.14-.17.2a7.61,7.61,0,0,0-1.72,3.84l-.06.53,0,.47,0,.74,0,1.48L102.93,45q-.15,5-.27,9.93l-.08,3,0,1.51a8.31,8.31,0,0,0,.1,1.48v.32a9,9,0,0,0,.3,2.46,9.83,9.83,0,0,0,.41,1.19q.12.28.27.57c.08.17.22.41.26.48l.72,1.28L106,69.79l5.8,10.28,5.85,10.25c3.72,6.55,14.06,22.75,17.82,29.28q3.31-3.34,6.47-6.83l.2-.21C138.64,106.76,129,90.45,125.42,84.68Z"/><path class="cls-2" d="M58.35,161.59c-3.93-.06-7.87-.08-11.8-.11l-5.91,0-2.84,0a19.66,19.66,0,0,1-2.39-.22,16.37,16.37,0,0,1-4.34-1.2,9.4,9.4,0,0,1-1.59-.94,5.81,5.81,0,0,1-1-1.05,5.33,5.33,0,0,1-.31-.58l-.07-.14,0-.08,0-.08c0-.11-.06-.22-.1-.33a.34.34,0,0,1,0-.18l0-.19,0-.18a.6.6,0,0,1,0-.2l0-.42a1.36,1.36,0,0,1,0-.21v-.23a14.27,14.27,0,0,1,.86-4.21l.43-1.15c.15-.39.34-.78.51-1.16l.25-.59.29-.56.57-1.12,3-5.07,6-10.16c3-5.21,8.79-15.15,8.64-14.89-.83-.87-1.67-1.75-2.49-2.64-1.37-1.47-2.71-3-4-4.51q-5.24,8.63-10.44,17.26l-6.06,10.15-3,5.09-.78,1.5-.39.76-.34.76c-.23.52-.47,1-.68,1.54l-.61,1.62a23.48,23.48,0,0,0-1.36,7.33v.5c0,.17,0,.35,0,.53l.09,1.05a5.15,5.15,0,0,0,.07.53l.11.54.1.54a5.36,5.36,0,0,0,.14.54,14.45,14.45,0,0,0,1.92,4.12,15,15,0,0,0,3.06,3.19,18.3,18.3,0,0,0,3.49,2.07A23.87,23.87,0,0,0,30.61,170a27.09,27.09,0,0,0,3.48.69,30.81,30.81,0,0,0,3.49.26h3.06l5.91,0,2.85,0c4.08-1.13,8.13-2.43,12.12-3.88q6.52-2.35,12.9-5.18C69.06,161.71,63.71,161.66,58.35,161.59Z"/><path class="cls-2" d="M163.88,155.19a24.08,24.08,0,0,0-1.39-7.47l-.62-1.65c-.21-.54-.46-1-.69-1.57l-.35-.78-.4-.77-.79-1.53-3.1-5.19-3.27-5.49c-1-1.53-.75-1.41-6.18-10.45-2.2,2.64-2.05,2.55-3.45,4.06-.84.9-2.49,2.7-3.35,3.59-.15-.27.33.61,1.6,2.81L148,141.11l3.05,5.17.58,1.15.29.57.26.59c.17.4.37.79.52,1.19l.44,1.17a14.21,14.21,0,0,1,.87,4.3l0,.23c0,.08,0,.15,0,.22a3,3,0,0,0,0,.43.64.64,0,0,1,0,.2l0,.19,0,.19a.61.61,0,0,1,0,.18c0,.11-.07.22-.1.33l0,.09,0,.07-.07.16a6.55,6.55,0,0,1-.32.58,5.7,5.7,0,0,1-1,1.07,9.12,9.12,0,0,1-1.62,1,16.94,16.94,0,0,1-4.43,1.23,20.31,20.31,0,0,1-2.43.22h-.93c-3.94-.1-48,.17-48,.17-2.09,1.15-4.83,2.62-7,3.71-3.71,1.89-7.82,3.85-11.63,5.54l58.59.22,6,.05H144a29.82,29.82,0,0,0,3.56-.27,26.5,26.5,0,0,0,3.55-.7,22.67,22.67,0,0,0,3.59-1.27,19,19,0,0,0,3.56-2.1,15.89,15.89,0,0,0,3.12-3.26,14.62,14.62,0,0,0,2-4.2c.06-.19.1-.37.14-.55l.11-.55.1-.55a3.53,3.53,0,0,0,.08-.54l.09-1.08c0-.18,0-.36,0-.53Z"/><path class="cls-1" d="M18.06,179.31a13.69,13.69,0,0,1-4.23-1.77,8.62,8.62,0,0,1-2.29-2.13,8.88,8.88,0,0,1-1.36-2.86,14.07,14.07,0,0,1,.06-6.67,33.25,33.25,0,0,1,2.27-6.6,34.27,34.27,0,0,0-1.73,3.08c-.28.52-.5,1.07-.75,1.61s-.46,1.11-.64,1.68a15.17,15.17,0,0,0-.79,7.24,10.2,10.2,0,0,0,1.3,3.6,10.84,10.84,0,0,0,2.59,2.89,14.23,14.23,0,0,0,3.29,1.94,19.37,19.37,0,0,0,2.09.77,7.7,7.7,0,0,1-.05-.83A8.4,8.4,0,0,1,18.06,179.31Z"/><path class="cls-1" d="M141.37,120a170.68,170.68,0,0,1-20.84,18.2c-3.71,2.77-7.49,5.45-11.36,8s-7.78,5-11.78,7.39-8,4.63-12.14,6.78-8.27,4.2-12.48,6.13a190,190,0,0,1-25.92,9.82,106.66,106.66,0,0,1-13.09,3,8.24,8.24,0,0,1,.23,1.94,8.08,8.08,0,0,1-.23,1.92h.1c2.4-.21,4.78-.54,7.14-1s4.7-.89,7-1.45,4.62-1.18,6.91-1.85,4.55-1.41,6.8-2.19c4.5-1.53,8.92-3.29,13.28-5.16s8.65-3.92,12.88-6.08,8.38-4.47,12.47-6.87,8.09-5,12-7.63,7.77-5.47,11.5-8.41,7.38-6,10.87-9.24a132.55,132.55,0,0,0,10-10.25c1.57-1.81,3.08-3.68,4.51-5.61.55-.74,1.08-1.48,1.6-2.24a8,8,0,0,1-3.65-1.92C145.39,115.64,143.42,117.87,141.37,120Z"/><path class="cls-1" d="M158,97.46a13.15,13.15,0,0,0-.56-3.88c-.09-.32-.23-.63-.34-.94s-.28-.61-.43-.9a10.58,10.58,0,0,0-4.06-4.14,14.94,14.94,0,0,0-3.42-1.48,26.79,26.79,0,0,0-7.12-1,47.54,47.54,0,0,0-7.07.48,52.52,52.52,0,0,1,7,.39,25.94,25.94,0,0,1,6.65,1.66,11.35,11.35,0,0,1,5.11,3.83,8.83,8.83,0,0,1,1.39,5.87,14.29,14.29,0,0,1-.37,2.22,7.88,7.88,0,0,1,2.83,1.39A19.23,19.23,0,0,0,158,97.46Z"/><path class="cls-1" d="M130.54,139.5a41.4,41.4,0,0,1,2,6.27,18.17,18.17,0,0,1,.42,6.38,8.78,8.78,0,0,1-.91,2.9,6.25,6.25,0,0,1-1.94,2.17,8,8,0,0,1-2.7,1.18,14.6,14.6,0,0,1-3,.35,26.23,26.23,0,0,1-6.26-.77,49.94,49.94,0,0,1-6.15-1.86c-1.55-.56-3.07-1.17-4.58-1.83-1.06.68-2.13,1.36-3.2,2,2.24.93,4.53,1.79,6.86,2.53a54,54,0,0,0,6.58,1.6,28.39,28.39,0,0,0,6.85.45,15,15,0,0,0,3.47-.64,9.8,9.8,0,0,0,3.2-1.67,7.79,7.79,0,0,0,2.22-2.88,9.46,9.46,0,0,0,.82-3.43,19.08,19.08,0,0,0-1-6.67A37.83,37.83,0,0,0,130.54,139.5Z"/><path class="cls-1" d="M45,64.83a8,8,0,0,1-.16,1.11c1.21.37,2.42.76,3.63,1.19q3.09,1.09,6.14,2.36c2,.84,4,1.73,6,2.63a127.93,127.93,0,0,0-11.88-5.81C47.49,65.8,46.23,65.3,45,64.83Z"/><path class="cls-1" d="M81.38,139.09a20,20,0,0,1-2.92,2.83,158.91,158.91,0,0,0,16.08,9.84c1.2-.68,2.41-1.36,3.6-2.06q-4.73-2.59-9.26-5.53C86.33,142.54,83.84,140.84,81.38,139.09Z"/><path class="cls-1" d="M40.11,101.09c-2.75-3.36-5.36-6.83-7.75-10.43a62.46,62.46,0,0,1-6.11-11.3,26.91,26.91,0,0,1-1.73-6,10.07,10.07,0,0,1,.6-5.77,5.81,5.81,0,0,1,1.77-2.12,7,7,0,0,1,1.25-.72l.69-.27a2.26,2.26,0,0,1,0-.26,7.94,7.94,0,0,1,.2-1.77,10.93,10.93,0,0,0-1.64.48,9.91,9.91,0,0,0-1.65.85,8,8,0,0,0-2.56,2.77A10.15,10.15,0,0,0,22,70.06,15.33,15.33,0,0,0,22,73.64a28,28,0,0,0,1.54,6.73A65.63,65.63,0,0,0,29.46,92.5c1.15,1.92,2.39,3.78,3.68,5.61s2.6,3.62,4,5.37q4.14,5.26,8.67,10.15c.82.89,1.66,1.77,2.49,2.64.21-.37.42-.73.65-1.09l0,0,1.48-2.55C46.84,108.89,43.38,105.07,40.11,101.09Z"/><path class="cls-2" d="M183.22,160.37a23.59,23.59,0,0,0,7.65,10.57,39,39,0,0,0,11.4,6.25,101,101,0,0,0,26,5.23,235,235,0,0,0,27,.88c9-.15,18.09-.49,27.14-1.15q6.8-.48,13.59-1.12t13.59-1.22c9.07-.89,18.13-1.94,27.19-3.09s18.15-2.23,27.24-3.42,18.24-2.35,27.46-3.36c18.38-2,36.84-3.67,55.35-4.61q13.89-.69,27.81-1c9.28-.25,18.58-.14,27.88.15,18.6.52,37.28,2,55.76,5.73,4.61,1,9.2,2.14,13.74,3.56a80.34,80.34,0,0,1,13.32,5.3,39.29,39.29,0,0,1,11.72,8.67,20.4,20.4,0,0,1,3.78,6.37,16.4,16.4,0,0,1,.86,7.18v0a.5.5,0,0,1-1,0,15.75,15.75,0,0,0-1.4-6.49,18.28,18.28,0,0,0-3.88-5.41A36.72,36.72,0,0,0,584,182.24c-8.42-3.5-17.47-5.36-26.51-6.73-18.15-2.65-36.57-3.2-54.92-3.13s-36.74,1-55.07,2.32-36.63,3.09-54.89,5.17-36.52,4.45-54.83,6.31-36.67,3.38-55.09,4c-9.2.29-18.42.36-27.64.05a235.77,235.77,0,0,1-27.56-2.39c-9.1-1.46-18.22-3.54-26.67-7.45a41.27,41.27,0,0,1-11.58-7.74,25,25,0,0,1-7-12,.5.5,0,0,1,1-.28Z"/></svg>