<?xml version="1.0" encoding="utf-8"?>
<!-- Generator: Adobe Illustrator 19.0.0, SVG Export Plug-In . SVG Version: 6.00 Build 0)  -->
<svg version="1.1" id="logo-store-superama" xmlns="http://www.w3.org/2000/svg" xmlns:xlink="http://www.w3.org/1999/xlink"
	 x="0px" y="0px" viewBox="0 0 873.7 200" style="enable-background:new 0 0 873.7 200;" xml:space="preserve">
<style type="text/css">
	.st0{fill:#146AB4;}
	.st1{fill:#EE7E00;}
</style>
<g id="superama">
	<path id="XMLID_49_" class="st0" d="M104.9,87.2c0.3-24.9-18.7-33.4-40.6-33.4c-20.6,0-42.9,10.8-42.9,33.4
		c0,17.4,12.1,23.6,24.6,27.8C60,120,70.2,121,70.2,128.2c0,6.9-7.2,9.8-13.4,9.8c-5.2,0-8.8,0-11.8-2.6c-2.3-2.3-3.6-5.6-3.6-11.5
		H10.9c-1.6,25.9,19.7,36.7,43.2,36.7c22.3,0,45.9-11.8,45.9-36.4c0-11.8-5.6-21.6-23.6-27.8c-10.2-3.3-24.9-3.9-24.9-11.5
		c0-6.9,6.6-8.2,11.8-8.2c3.6,0,6.9,0.3,9.2,2c2,1.6,3.6,4.3,3.6,8.5L104.9,87.2L104.9,87.2z M190.1,84.3h-28.2l-6.6,29.8
		c-2.3,9.8-2.6,23.3-15.4,23.3c-4.3,0-8.2-2.3-8.2-6.6c0,0,0-3.9,1-7.9l8.8-38.7h-28.5c-8.8,40.6-11.1,49.8-11.1,56
		c0,14.1,10.5,19.7,23.6,19.7c9.8,0,18-3.6,23.6-11.1h0.7l-2.6,9.2h27.5L190.1,84.3z M230.4,139.3c-9.2,0-10.2-9.2-10.2-12.1
		c0-6.2,2.3-24.6,14.7-24.6c8.2,0,10.2,5.9,10.2,13.4C245.1,125.2,241.5,139.3,230.4,139.3 M180.3,182.2h28.2l6.6-33.4
		c6.2,10.2,14.4,11.1,22.6,11.1c24.9,0,35.7-25.6,35.7-47.2c0-13.1-5.9-30.5-26.5-30.5c-8.8,0-15.4,3.6-20.3,10.2l1.3-8.2h-26.9
		L180.3,182.2z M304.4,112.8c2-7.5,7.2-12.4,14.7-12.4c7.2,0,10.8,4.3,10.8,10.2c0,0.3-0.3,2-0.3,2.3L304.4,112.8L304.4,112.8z
		 M324.8,136.4c-1.3,3-4.9,5.2-11.1,5.2c-8.5,0-11.5-6.2-11.5-13.8h52.4c1.6-4.9,1.6-9.2,1.6-13.1c0-23.3-19.7-32.4-36.4-32.4
		c-18,0-44.2,11.1-44.2,44.9c0,18,10.5,32.8,37,32.8c32.1,0,37.3-18.3,39.3-23.6H324.8z M355.5,158h28.5l6.2-30.8
		c3.6-15.4,9.2-20.6,21.3-20.6c3.9,0,7.9,0.3,11.1,2l5.2-25.2c-2.9-1-5.2-1-10.2-1c-7.2,0-16.4,5.6-21.6,13.8l2.3-11.8h-27.5
		L355.5,158z M442.4,137c0-5.6,4.6-7.9,9.2-8.2c4.9-0.7,10.2-1,15.1-3.6c-2,11.1-5.9,18-15.4,18C447,143.3,442.4,142.3,442.4,137
		 M450.6,106.6c1.6-5.9,5.6-7.9,11.1-7.9c4.3,0,8.8,1.6,8.8,6.9c0,9.2-12.8,7.9-21,8.2c-21,2-35.4,7.2-35.4,26.5
		c0,14.1,11.5,19.7,23.9,19.7c8.2,0,18-2.6,22.6-9.2h0.7c-0.7,2.6,0,4.9,1,7.2h27.5c-1-3.3-0.7-0.7-1-6.2c0-5.2,8.5-38,8.5-49.5
		c0-18.3-22.3-20-35.7-20c-18.3,0-33.1,4.6-37.7,24.2H450.6z M497.4,158h28.2l9.2-42.3c1.3-6.2,4.6-11.1,11.8-11.1
		c4.6,0,6.9,2.3,6.9,7.2c0,2-0.7,4.9-1,6.9l-8.5,39.3h28.2l9.8-44.6c1-5.6,5.2-8.8,10.5-8.8c4.9,0,7.2,2.9,7.2,7.2
		c0,2.3-1.3,9.8-1.3,11.1l-7.9,35.1H619l8.8-41.9c0.3-3.3,2-8.5,2-11.8c0-15.1-9.2-22-23.9-22c-10.2,0-18.3,4.6-24.6,12.1
		c-1.3-9.2-10.2-12.1-19.7-12.1s-17.4,4.6-23.3,11.8H538l2-9.8h-27.2L497.4,158z M658,137c0-5.6,4.6-7.9,9.2-8.2
		c4.9-0.7,10.2-1,15.1-3.6c-2,11.1-5.9,18-15.4,18C662.5,143.3,658,142.3,658,137 M666.1,106.6c1.6-5.9,5.6-7.9,11.1-7.9
		c4.6,0,8.8,1.6,8.8,6.9c0,9.2-12.8,7.9-21,8.2c-21,2-35.4,7.2-35.4,26.5c0,14.1,10.8,19.7,23.9,19.7c8.2,0,18-2.6,22.6-9.2h0.7
		c-0.7,2.6,0,4.9,1,7.2h27.5c-1-3.3-0.7-0.7-1-6.2c0-5.2,8.5-38,8.5-49.5c0-18.3-22.3-20-35.7-20c-18.3,0-33.1,4.6-37.7,24.2H666.1z
		"/>
	<path id="XMLID_48_" class="st0" d="M787.7,43.3c6.9,0,8.8,2.3,8.8,5.9c0,3.9-4.3,6.6-10.8,6.6c-6.2,0-8.2-2.6-8.2-5.2
		C777.5,48.6,780.2,43.3,787.7,43.3"/>
	<path id="XMLID_47_" class="st0" d="M774.3,106.9l7.2,1c0,0-5.2,45.9-85.2,73.4c-62.9,21.3-130.4-7.2-130.4-7.2l9.8-16.4
		c30.8,12.1,50.5,17.7,81.3,17.7c30.5,0,69.1-14.7,88.5-31.1C764.1,127.2,774.3,106.9,774.3,106.9"/>
	<path id="XMLID_46_" class="st1" d="M773.3,54.5c0,0-12.1,4.9-16.7,12.5c-5.6,7.2-7.2,20.3-20.3,20.3c-13.1,0-20.3-15.1-20.3-26.9
		c0-12.8,11.1-19.3,27.5-19.3C759.8,41,771,46.3,773.3,54.5"/>
	<path id="XMLID_45_" class="st1" d="M773.9,44.3c-10.8-9.5-22-5.9-27.2-5.9c-4.6,0-12.1-2.3-12.1-6.6c0-10.2,17.4-21.3,42.6-21.3
		c13.4,0,20.6,2.9,20.6,11.1C797.8,29.9,785.7,42.3,773.9,44.3"/>
	<path id="XMLID_44_" class="st1" d="M798.8,44.3c0-21.3,8.2-31.8,25.2-31.8c16.4,0,29.5,13.1,29.5,22.6c0,4.9-1.6,7.2-7.5,7.2
		c-5.6,0-16.4-4.3-23.6-4.3C814.9,38.1,807,39.4,798.8,44.3"/>
	<path id="XMLID_43_" class="st1" d="M797.8,55.8C804.1,47.6,811,44,829.3,44c17.7,0,32.8,7.2,32.8,21c0,14.1-21.6,25.6-29.8,25.6
		c-8.2,0-12.1-9.2-15.4-15.4C813.9,68.6,806,57.7,797.8,55.8"/>
	<path id="XMLID_39_" class="st1" d="M786.4,59.4c16.1,0,31.8,17.4,31.8,31.1c0,11.1-20.6,13.8-29.5,13.8c-9.2,0-39-4.6-39-15.7
		C749.7,73.1,775.9,59.4,786.4,59.4"/>
</g>
</svg>
